<svg xmlns="http://www.w3.org/2000/svg" xmlns:xlink="http://www.w3.org/1999/xlink" width="1200" zoomAndPan="magnify" viewBox="0 0 900 899.99999" height="1200" preserveAspectRatio="xMidYMid meet" version="1.0"><defs><clipPath id="09cda525d3"><path d="M 357 350 L 542 350 L 542 585.261719 L 357 585.261719 Z M 357 350 " clip-rule="nonzero"/></clipPath><clipPath id="96066ac5ba"><path d="M 609 430 L 643.472656 430 L 643.472656 447 L 609 447 Z M 609 430 " clip-rule="nonzero"/></clipPath><clipPath id="a6053e101b"><path d="M 348 314.511719 L 380 314.511719 L 380 341 L 348 341 Z M 348 314.511719 " clip-rule="nonzero"/></clipPath><clipPath id="f905bde096"><path d="M 661 344.5 L 855 344.5 L 855 600.25 L 661 600.25 Z M 661 344.5 " clip-rule="nonzero"/></clipPath><clipPath id="091a0323df"><path d="M 19 0.5 L 175 0.5 L 175 256.25 L 19 256.25 Z M 19 0.5 " clip-rule="nonzero"/></clipPath><clipPath id="0942531f93"><path d="M 147 60 L 193.160156 60 L 193.160156 156 L 147 156 Z M 147 60 " clip-rule="nonzero"/></clipPath><clipPath id="966e2dc3ba"><rect x="0" width="194" y="0" height="257"/></clipPath><clipPath id="63ee628421"><path d="M 113 347 L 291 347 L 291 593.5 L 113 593.5 Z M 113 347 " clip-rule="nonzero"/></clipPath></defs><path fill="#bda0fa" d="M 504.496094 487.363281 C 509.164062 497.429688 511.234375 507.914062 511 515.96875 C 510.195312 542.863281 493.664062 559.589844 493.664062 559.589844 C 518.007812 560.148438 527.753906 572.96875 513.835938 580.628906 C 511.972656 581.65625 509.929688 582.328125 507.835938 582.714844 C 494.710938 585.179688 482.863281 583.679688 475.261719 581.996094 C 474.96875 581.9375 474.679688 581.863281 474.398438 581.78125 C 468.675781 580.074219 465.5625 573.449219 467.285156 567.414062 C 469.410156 559.945312 490.425781 542.707031 490.933594 516.355469 C 491.109375 506.992188 488.601562 495.746094 481.925781 484.191406 L 441.519531 477.683594 C 418.414062 509.695312 409.550781 534.304688 406.730469 543.746094 C 404.941406 549.761719 398.75 553.667969 393.011719 552.03125 C 392.726562 551.953125 392.4375 551.863281 392.164062 551.75 C 384.84375 549.085938 374.050781 543.976562 364.308594 534.847656 C 362.757812 533.390625 361.398438 531.722656 360.375 529.863281 C 352.757812 515.914062 372.222656 512.871094 393.046875 525.484375 C 393.046875 525.484375 400.21875 502.359375 420.367188 472.625 C 399.402344 462.121094 393.625 432.507812 412.484375 415.152344 L 419.945312 408.285156 C 432.492188 396.730469 443.316406 383.4375 452.082031 368.804688 L 452.476562 368.15625 C 459.996094 355.597656 473.261719 350.859375 485.429688 352.835938 C 497.613281 354.789062 508.710938 363.445312 511.910156 377.742188 L 512.074219 378.476562 C 515.800781 395.121094 521.898438 411.140625 530.183594 426.050781 L 535.105469 434.921875 C 548.429688 458.914062 530.523438 487.378906 504.496094 487.363281 Z M 504.496094 487.363281 " fill-opacity="1" fill-rule="nonzero"/><g clip-path="url(#09cda525d3)"><path fill="#ffffff" d="M 493.613281 585.5 C 486.210938 585.5 479.75 584.511719 474.941406 583.445312 C 474.636719 583.382812 474.308594 583.296875 473.992188 583.207031 C 467.613281 581.304688 463.902344 573.890625 465.859375 567.007812 C 466.566406 564.519531 468.957031 561.320312 471.984375 557.265625 C 478.800781 548.144531 489.105469 534.347656 489.445312 516.324219 C 489.582031 509.300781 488.207031 498.304688 480.992188 485.542969 L 442.1875 479.292969 C 419.535156 510.867188 410.84375 535.152344 408.148438 544.171875 C 406.105469 551.023438 398.988281 555.277344 392.601562 553.457031 C 392.28125 553.363281 391.941406 553.257812 391.601562 553.125 C 384.191406 550.429688 373.21875 545.238281 363.292969 535.929688 C 361.546875 534.296875 360.128906 532.492188 359.074219 530.585938 C 355.5625 524.148438 357.777344 520.5625 359.417969 519.003906 C 364.902344 513.761719 378.800781 515.632812 392.230469 523.289062 C 394.300781 517.40625 401.964844 497.476562 418.222656 473.167969 C 408.347656 467.625 401.5625 457.628906 399.945312 446.101562 C 398.25 434.050781 402.453125 422.367188 411.480469 414.058594 L 418.941406 407.191406 C 431.390625 395.730469 442.113281 382.550781 450.8125 368.039062 L 451.214844 367.386719 C 458.480469 355.238281 471.695312 349.101562 485.675781 351.371094 C 499.664062 353.613281 510.269531 363.59375 513.367188 377.421875 L 513.53125 378.15625 C 517.226562 394.675781 523.269531 410.546875 531.488281 425.328125 L 536.410156 434.199219 C 542.808594 445.714844 542.652344 459.34375 535.996094 470.652344 C 529.667969 481.386719 518.859375 488.046875 506.757812 488.78125 C 510.65625 497.890625 512.734375 507.699219 512.492188 516.011719 C 511.84375 537.636719 501.414062 552.664062 496.832031 558.253906 C 510.128906 559.183594 519.878906 563.984375 521.496094 570.621094 C 522.519531 574.816406 519.996094 578.945312 514.5625 581.9375 C 512.640625 582.992188 510.472656 583.746094 508.117188 584.179688 C 503.03125 585.128906 498.140625 585.5 493.613281 585.5 Z M 441.519531 476.199219 C 441.601562 476.199219 441.675781 476.207031 441.753906 476.21875 L 482.164062 482.730469 C 482.601562 482.804688 482.988281 483.066406 483.210938 483.449219 C 491.082031 497.066406 492.558594 508.878906 492.417969 516.382812 C 492.054688 535.367188 481.40625 549.613281 474.363281 559.042969 C 471.628906 562.699219 469.269531 565.855469 468.710938 567.816406 C 467.183594 573.167969 469.980469 578.90625 474.820312 580.355469 C 475.050781 580.421875 475.304688 580.488281 475.558594 580.539062 C 483.0625 582.203125 494.6875 583.671875 507.5625 581.253906 C 509.609375 580.875 511.480469 580.230469 513.121094 579.324219 C 517.351562 576.992188 519.296875 574.15625 518.609375 571.320312 C 517.042969 564.929688 504.859375 561.328125 493.632812 561.066406 C 493.039062 561.054688 492.511719 560.6875 492.289062 560.140625 C 492.066406 559.589844 492.195312 558.960938 492.609375 558.535156 C 492.773438 558.371094 508.742188 541.871094 509.515625 515.914062 C 509.765625 507.421875 507.441406 497.246094 503.144531 487.980469 C 502.929688 487.519531 502.964844 486.984375 503.242188 486.554688 C 503.515625 486.125 503.984375 485.871094 504.496094 485.871094 C 504.503906 485.871094 504.511719 485.871094 504.515625 485.871094 C 516.449219 485.871094 527.257812 479.621094 533.425781 469.136719 C 539.542969 458.746094 539.683594 446.21875 533.804688 435.632812 L 528.882812 426.761719 C 520.53125 411.730469 514.382812 395.597656 510.628906 378.796875 L 510.464844 378.0625 C 507.644531 365.449219 497.960938 356.347656 485.199219 354.296875 C 472.445312 352.226562 460.390625 357.832031 453.753906 368.914062 L 453.351562 369.566406 C 444.511719 384.320312 433.613281 397.710938 420.953125 409.367188 L 413.492188 416.234375 C 405.191406 423.875 401.324219 434.609375 402.882812 445.679688 C 404.449219 456.804688 411.234375 466.375 421.035156 471.289062 C 421.421875 471.484375 421.695312 471.832031 421.808594 472.242188 C 421.917969 472.65625 421.835938 473.09375 421.601562 473.449219 C 401.824219 502.632812 394.539062 525.6875 394.464844 525.914062 C 394.332031 526.355469 393.996094 526.703125 393.574219 526.867188 C 393.152344 527.027344 392.667969 526.984375 392.277344 526.746094 C 378.40625 518.34375 365.484375 517.296875 361.464844 521.132812 C 359.210938 523.296875 360.332031 526.679688 361.675781 529.144531 C 362.578125 530.777344 363.804688 532.328125 365.320312 533.753906 C 374.882812 542.722656 385.46875 547.726562 392.667969 550.347656 C 392.949219 550.460938 393.1875 550.535156 393.417969 550.601562 C 398.273438 551.980469 403.714844 548.648438 405.304688 543.316406 C 408.066406 534.082031 416.996094 509.109375 440.316406 476.804688 C 440.597656 476.421875 441.050781 476.199219 441.519531 476.199219 Z M 441.519531 476.199219 " fill-opacity="1" fill-rule="nonzero"/></g><path fill="#bda0fa" d="M 528.882812 426.886719 L 523.398438 438.21875 L 548.527344 445.105469 L 585.476562 448.074219 L 593.605469 457.257812 L 605.058594 460.332031 L 609.929688 462.597656 L 612.78125 460.199219 L 613.621094 456.472656 L 617.257812 454.289062 L 618.347656 448.871094 L 621.808594 445.953125 L 622.824219 443.140625 L 635.839844 445.714844 L 641.972656 440.816406 L 638.503906 435.835938 L 610.136719 433.480469 L 606.871094 428.691406 L 597.65625 428.128906 L 587.019531 435.78125 L 554.367188 433.429688 Z M 528.882812 426.886719 " fill-opacity="1" fill-rule="nonzero"/><g clip-path="url(#96066ac5ba)"><path fill="#ffffff" d="M 638.214844 446.117188 C 637.257812 446.355469 636.246094 446.382812 635.265625 446.175781 L 612.898438 441.460938 C 612.097656 441.289062 611.585938 440.503906 611.757812 439.703125 C 611.925781 438.898438 612.714844 438.386719 613.515625 438.558594 L 635.882812 443.273438 C 636.855469 443.480469 637.835938 443.28125 638.652344 442.707031 C 639.46875 442.144531 639.996094 441.289062 640.144531 440.304688 C 640.285156 439.339844 640.035156 438.378906 639.441406 437.601562 C 638.839844 436.828125 637.976562 436.347656 637.003906 436.242188 L 610.871094 433.4375 C 610.054688 433.347656 609.46875 432.621094 609.558594 431.804688 C 609.648438 430.984375 610.375 430.398438 611.191406 430.488281 L 637.324219 433.296875 C 639.105469 433.488281 640.695312 434.371094 641.792969 435.789062 C 642.890625 437.207031 643.351562 438.96875 643.09375 440.742188 C 642.832031 442.515625 641.835938 444.117188 640.359375 445.144531 C 639.699219 445.597656 638.980469 445.921875 638.214844 446.117188 Z M 638.214844 446.117188 " fill-opacity="1" fill-rule="nonzero"/></g><path fill="#ffffff" d="M 609.386719 447.601562 C 609.03125 447.691406 608.667969 447.75 608.296875 447.777344 C 606.640625 447.898438 605.039062 447.363281 603.78125 446.273438 C 602.527344 445.179688 601.777344 443.667969 601.660156 442.011719 L 601.332031 437.265625 C 601.273438 436.449219 601.890625 435.738281 602.714844 435.683594 C 603.53125 435.625 604.242188 436.25 604.292969 437.066406 L 604.621094 441.808594 C 604.679688 442.679688 605.074219 443.464844 605.726562 444.039062 C 606.382812 444.609375 607.21875 444.882812 608.082031 444.824219 C 608.972656 444.757812 609.773438 444.347656 610.34375 443.660156 C 610.917969 442.96875 611.167969 442.105469 611.066406 441.214844 L 610.300781 434.609375 C 609.980469 431.878906 607.761719 429.769531 605.015625 429.597656 L 602.195312 429.417969 C 599.921875 429.277344 597.6875 429.976562 595.90625 431.394531 L 589.648438 436.359375 L 589.21875 436.40625 C 588.914062 436.433594 558.511719 439.40625 529.558594 427.429688 C 528.800781 427.117188 528.4375 426.25 528.757812 425.492188 C 529.070312 424.734375 529.9375 424.371094 530.695312 424.691406 C 557.125 435.617188 584.761719 433.800781 588.488281 433.488281 L 594.066406 429.0625 C 596.425781 427.191406 599.378906 426.265625 602.386719 426.457031 L 605.207031 426.636719 C 609.386719 426.902344 612.773438 430.109375 613.253906 434.265625 L 614.019531 440.875 C 614.21875 442.574219 613.722656 444.238281 612.632812 445.550781 C 611.785156 446.570312 610.65625 447.28125 609.386719 447.601562 Z M 609.386719 447.601562 " fill-opacity="1" fill-rule="nonzero"/><path fill="#ffffff" d="M 620.128906 449.144531 C 618.867188 449.464844 617.539062 449.398438 616.285156 448.945312 L 610.828125 446.976562 C 610.054688 446.703125 609.65625 445.847656 609.9375 445.078125 C 610.210938 444.304688 611.066406 443.902344 611.835938 444.1875 L 617.292969 446.152344 C 618.230469 446.488281 619.230469 446.433594 620.121094 446.003906 C 621.011719 445.574219 621.675781 444.816406 621.992188 443.875 L 622.675781 441.824219 C 622.9375 441.046875 623.773438 440.628906 624.554688 440.890625 C 625.335938 441.148438 625.75 441.988281 625.488281 442.769531 L 624.808594 444.816406 C 624.242188 446.523438 623.03125 447.890625 621.414062 448.675781 C 621 448.878906 620.566406 449.035156 620.128906 449.144531 Z M 620.128906 449.144531 " fill-opacity="1" fill-rule="nonzero"/><path fill="#ffffff" d="M 616.21875 456.992188 C 614.734375 457.363281 613.144531 457.117188 611.84375 456.292969 L 604.792969 451.855469 C 603.804688 451.230469 603.121094 450.257812 602.875 449.109375 C 602.632812 447.964844 602.855469 446.800781 603.507812 445.820312 C 603.960938 445.136719 604.882812 444.949219 605.5625 445.410156 C 606.246094 445.863281 606.433594 446.785156 605.972656 447.46875 C 605.773438 447.773438 605.707031 448.128906 605.78125 448.484375 C 605.855469 448.839844 606.070312 449.144531 606.375 449.339844 L 613.417969 453.777344 C 614.042969 454.171875 614.769531 454.28125 615.484375 454.105469 C 615.496094 454.097656 615.511719 454.097656 615.527344 454.089844 C 616.253906 453.894531 616.839844 453.421875 617.191406 452.753906 C 617.53125 452.101562 617.582031 451.355469 617.347656 450.667969 C 617.109375 449.96875 616.609375 449.417969 615.941406 449.117188 L 612.824219 447.691406 C 612.082031 447.347656 611.75 446.464844 612.089844 445.722656 C 612.429688 444.980469 613.316406 444.644531 614.058594 444.988281 L 617.175781 446.414062 C 618.59375 447.058594 619.648438 448.230469 620.152344 449.703125 C 620.65625 451.171875 620.539062 452.746094 619.816406 454.125 C 619.097656 455.515625 617.8125 456.546875 616.300781 456.953125 C 616.277344 456.976562 616.246094 456.984375 616.21875 456.992188 Z M 616.21875 456.992188 " fill-opacity="1" fill-rule="nonzero"/><path fill="#ffffff" d="M 611.824219 463.148438 C 611.636719 463.191406 611.445312 463.226562 611.257812 463.257812 C 609.832031 463.457031 608.429688 463.074219 607.300781 462.179688 L 603.515625 459.175781 C 600.859375 457.066406 600.339844 453.257812 602.328125 450.503906 L 603.515625 448.871094 C 603.996094 448.210938 604.925781 448.0625 605.585938 448.535156 C 606.246094 449.019531 606.394531 449.945312 605.921875 450.609375 L 604.734375 452.242188 C 603.679688 453.703125 603.953125 455.722656 605.363281 456.84375 L 609.148438 459.851562 C 609.632812 460.238281 610.242188 460.398438 610.851562 460.316406 C 611.457031 460.230469 612 459.910156 612.355469 459.40625 C 612.722656 458.898438 612.855469 458.277344 612.734375 457.667969 C 612.609375 457.050781 612.253906 456.53125 611.71875 456.207031 L 609.714844 454.964844 C 609.015625 454.535156 608.800781 453.613281 609.230469 452.925781 C 609.664062 452.226562 610.574219 452.011719 611.273438 452.441406 L 613.277344 453.679688 C 614.496094 454.4375 615.355469 455.679688 615.636719 457.089844 C 615.921875 458.5 615.601562 459.976562 614.761719 461.140625 C 614.042969 462.144531 613.011719 462.84375 611.824219 463.148438 Z M 611.824219 463.148438 " fill-opacity="1" fill-rule="nonzero"/><path fill="#ffffff" d="M 609.929688 463.480469 C 609.847656 463.480469 609.765625 463.472656 609.683594 463.457031 C 590.910156 460.304688 585.765625 452.621094 584.445312 449.605469 C 559.574219 450.453125 537.730469 443.363281 537.507812 443.296875 C 536.730469 443.035156 536.308594 442.195312 536.566406 441.425781 C 536.820312 440.644531 537.664062 440.222656 538.4375 440.480469 C 538.652344 440.554688 560.648438 447.683594 585.410156 446.605469 C 586.136719 446.578125 586.78125 447.074219 586.929688 447.785156 C 586.945312 447.859375 589.320312 457.035156 610.175781 460.539062 C 610.984375 460.675781 611.527344 461.4375 611.390625 462.25 C 611.273438 462.96875 610.640625 463.480469 609.929688 463.480469 Z M 609.929688 463.480469 " fill-opacity="1" fill-rule="nonzero"/><path fill="#bda0fa" d="M 436.21875 393.800781 L 430.242188 405.691406 L 408.585938 391.203125 L 382.15625 365.210938 L 369.890625 365.078125 L 360.078125 358.433594 L 355.171875 356.226562 L 355.117188 352.5 L 357.382812 349.425781 L 356.65625 345.246094 L 360.039062 340.875 L 359.988281 336.355469 L 361.453125 333.742188 L 350.984375 325.589844 L 350.671875 317.742188 L 356.707031 317.101562 L 377.050781 337.007812 L 382.808594 336.355469 L 389.269531 342.945312 L 390.449219 355.996094 L 413.597656 379.144531 Z M 436.21875 393.800781 " fill-opacity="1" fill-rule="nonzero"/><g clip-path="url(#a6053e101b)"><path fill="#ffffff" d="M 349.121094 324.050781 C 349.566406 324.9375 350.203125 325.714844 351 326.316406 L 369.210938 340.148438 C 369.863281 340.644531 370.789062 340.519531 371.289062 339.863281 C 371.785156 339.210938 371.660156 338.285156 371.007812 337.785156 L 352.800781 323.957031 C 352.007812 323.355469 351.519531 322.484375 351.414062 321.5 C 351.308594 320.503906 351.605469 319.546875 352.253906 318.796875 C 352.890625 318.054688 353.78125 317.617188 354.753906 317.5625 C 355.734375 317.511719 356.664062 317.847656 357.375 318.515625 L 376.605469 336.433594 C 377.203125 336.992188 378.140625 336.960938 378.703125 336.359375 C 379.261719 335.757812 379.230469 334.824219 378.628906 334.261719 L 359.402344 316.339844 C 358.089844 315.113281 356.382812 314.496094 354.589844 314.59375 C 352.800781 314.699219 351.167969 315.5 350.003906 316.859375 C 348.832031 318.21875 348.265625 320.019531 348.460938 321.804688 C 348.542969 322.589844 348.769531 323.355469 349.121094 324.050781 Z M 349.121094 324.050781 " fill-opacity="1" fill-rule="nonzero"/></g><path fill="#ffffff" d="M 366.871094 346.820312 C 367.035156 347.148438 367.226562 347.460938 367.449219 347.757812 C 368.445312 349.085938 369.898438 349.945312 371.546875 350.183594 C 373.195312 350.421875 374.828125 350 376.15625 348.996094 L 379.960938 346.136719 C 380.613281 345.648438 380.753906 344.714844 380.25 344.058594 C 379.757812 343.40625 378.824219 343.273438 378.171875 343.769531 L 374.367188 346.628906 C 373.679688 347.148438 372.824219 347.371094 371.964844 347.246094 C 371.101562 347.117188 370.34375 346.671875 369.824219 345.976562 C 369.292969 345.253906 369.074219 344.378906 369.222656 343.503906 C 369.371094 342.621094 369.855469 341.863281 370.597656 341.355469 L 376.089844 337.617188 C 378.363281 336.070312 381.414062 336.367188 383.335938 338.328125 L 385.320312 340.339844 C 386.914062 341.964844 387.851562 344.113281 387.949219 346.382812 L 388.289062 354.378906 L 388.535156 354.734375 C 388.710938 354.988281 406.359375 379.910156 434.363281 393.96875 C 435.097656 394.339844 435.988281 394.042969 436.351562 393.308594 C 436.714844 392.574219 436.425781 391.683594 435.691406 391.320312 C 410.128906 378.492188 393.410156 356.40625 391.207031 353.382812 L 390.902344 346.28125 C 390.777344 343.265625 389.535156 340.429688 387.425781 338.277344 L 385.445312 336.265625 C 382.511719 333.28125 377.867188 332.820312 374.40625 335.179688 L 368.914062 338.921875 C 367.5 339.886719 366.566406 341.34375 366.285156 343.027344 C 366.078125 344.335938 366.285156 345.648438 366.871094 346.820312 Z M 366.871094 346.820312 " fill-opacity="1" fill-rule="nonzero"/><path fill="#ffffff" d="M 358.675781 339.710938 C 359.261719 340.875 360.183594 341.832031 361.339844 342.484375 L 366.402344 345.320312 C 367.117188 345.722656 368.023438 345.46875 368.421875 344.75 C 368.824219 344.039062 368.570312 343.132812 367.851562 342.730469 L 362.789062 339.894531 C 361.925781 339.414062 361.304688 338.617188 361.050781 337.660156 C 360.789062 336.703125 360.933594 335.707031 361.4375 334.855469 L 362.535156 332.996094 C 362.957031 332.292969 362.722656 331.378906 362.015625 330.964844 C 361.308594 330.546875 360.398438 330.777344 359.980469 331.484375 L 358.882812 333.339844 C 357.960938 334.882812 357.71875 336.695312 358.183594 338.425781 C 358.304688 338.878906 358.46875 339.308594 358.675781 339.710938 Z M 358.675781 339.710938 " fill-opacity="1" fill-rule="nonzero"/><path fill="#ffffff" d="M 355.296875 347.800781 C 355.988281 349.167969 357.210938 350.207031 358.683594 350.652344 L 366.65625 353.078125 C 367.777344 353.421875 368.957031 353.296875 369.980469 352.730469 C 371.007812 352.167969 371.742188 351.230469 372.054688 350.101562 C 372.269531 349.308594 371.808594 348.492188 371.011719 348.277344 C 370.21875 348.0625 369.402344 348.519531 369.1875 349.316406 C 369.089844 349.664062 368.859375 349.953125 368.542969 350.132812 C 368.222656 350.3125 367.859375 350.347656 367.507812 350.238281 L 359.535156 347.816406 C 358.832031 347.601562 358.265625 347.125 357.941406 346.472656 C 357.933594 346.457031 357.925781 346.441406 357.917969 346.429688 C 357.589844 345.753906 357.5625 344.996094 357.84375 344.296875 C 358.109375 343.613281 358.636719 343.085938 359.320312 342.8125 C 360.003906 342.539062 360.746094 342.550781 361.414062 342.855469 L 364.546875 344.28125 C 365.289062 344.625 366.171875 344.296875 366.515625 343.546875 C 366.855469 342.804688 366.523438 341.921875 365.78125 341.578125 L 362.652344 340.15625 C 361.234375 339.507812 359.664062 339.472656 358.222656 340.058594 C 356.78125 340.636719 355.667969 341.757812 355.097656 343.207031 C 354.515625 344.660156 354.578125 346.308594 355.261719 347.71875 C 355.265625 347.742188 355.28125 347.777344 355.296875 347.800781 Z M 355.296875 347.800781 " fill-opacity="1" fill-rule="nonzero"/><path fill="#ffffff" d="M 353.523438 355.152344 C 353.613281 355.320312 353.707031 355.492188 353.8125 355.65625 C 354.589844 356.867188 355.800781 357.675781 357.21875 357.941406 L 361.972656 358.832031 C 365.304688 359.464844 368.527344 357.363281 369.304688 354.058594 L 369.765625 352.09375 C 369.953125 351.296875 369.460938 350.496094 368.660156 350.3125 C 367.859375 350.125 367.0625 350.613281 366.878906 351.417969 L 366.417969 353.382812 C 366.007812 355.136719 364.292969 356.25 362.527344 355.914062 L 357.777344 355.023438 C 357.167969 354.914062 356.648438 354.566406 356.3125 354.042969 C 355.980469 353.523438 355.867188 352.910156 356.015625 352.308594 C 356.164062 351.699219 356.542969 351.195312 357.085938 350.882812 C 357.628906 350.570312 358.257812 350.503906 358.859375 350.6875 L 361.109375 351.386719 C 361.890625 351.632812 362.726562 351.195312 362.964844 350.414062 C 363.210938 349.636719 362.773438 348.796875 361.992188 348.558594 L 359.742188 347.859375 C 358.371094 347.429688 356.871094 347.59375 355.625 348.304688 C 354.375 349.019531 353.472656 350.222656 353.136719 351.625 C 352.824219 352.820312 352.972656 354.058594 353.523438 355.152344 Z M 353.523438 355.152344 " fill-opacity="1" fill-rule="nonzero"/><path fill="#ffffff" d="M 425.800781 404.199219 C 425.527344 404.199219 425.261719 404.125 425.007812 403.96875 C 424.734375 403.792969 397.515625 386.496094 381.675781 366.992188 C 378.542969 367.964844 369.359375 369.109375 354.6875 356.976562 C 354.058594 356.457031 353.96875 355.523438 354.488281 354.882812 C 355.007812 354.253906 355.941406 354.164062 356.582031 354.683594 C 373.070312 368.328125 381.347656 363.964844 381.429688 363.910156 C 382.066406 363.554688 382.871094 363.710938 383.316406 364.28125 C 398.726562 383.734375 426.3125 401.277344 426.589844 401.453125 C 427.277344 401.890625 427.488281 402.8125 427.050781 403.503906 C 426.773438 403.957031 426.292969 404.199219 425.800781 404.199219 Z M 425.800781 404.199219 " fill-opacity="1" fill-rule="nonzero"/><g clip-path="url(#f905bde096)"><g transform="matrix(1, 0, 0, 1, 661, 344)"><g clip-path="url(#966e2dc3ba)"><path fill="#ffc061" d="M 49.078125 47.230469 L 19.832031 60.003906 L 6.042969 72.796875 L 2.480469 89.886719 L 5.558594 102.820312 L 16.246094 111.011719 L 19.898438 123.804688 L 24.144531 128.601562 L 20.203125 130.625 L 19.121094 135.210938 L 21.765625 138.132812 L 32.523438 141.371094 L 46.132812 138.546875 L 53.628906 131.910156 L 54.269531 122.726562 L 49.839844 113.394531 L 33.257812 105.765625 L 21.316406 100.144531 L 16.945312 94.863281 L 16.460938 82.96875 L 25.238281 71.15625 L 43.566406 61.753906 L 48.792969 60.589844 Z M 49.078125 47.230469 " fill-opacity="1" fill-rule="nonzero"/><path fill="#ffffff" d="M 35.738281 142.304688 C 37.765625 142.304688 39.730469 142.105469 41.648438 141.710938 C 50.582031 139.875 56.652344 131.910156 55.757812 123.191406 C 55.183594 117.527344 51.789062 112.84375 45.679688 109.265625 C 43.140625 107.78125 40.308594 106.628906 37.273438 105.84375 C 33.300781 104.816406 23.574219 101.699219 19.019531 94.878906 C 16.753906 91.484375 16.839844 85.4375 18.335938 81.914062 C 23.652344 69.445312 48.695312 62.722656 48.949219 62.652344 C 49.714844 62.449219 50.167969 61.667969 49.960938 60.910156 C 49.761719 60.148438 48.984375 59.691406 48.222656 59.898438 C 47.140625 60.183594 21.578125 67.050781 15.710938 80.804688 C 13.886719 85.082031 13.738281 92.109375 16.644531 96.46875 C 21.566406 103.832031 31.234375 107.242188 36.550781 108.609375 C 39.339844 109.328125 41.921875 110.378906 44.230469 111.730469 C 49.585938 114.871094 52.429688 118.710938 52.921875 123.480469 C 53.664062 130.738281 48.574219 137.378906 41.070312 138.925781 C 35.261719 140.121094 28.832031 139.304688 21.964844 136.488281 C 20.757812 135.996094 20.117188 134.617188 20.496094 133.355469 L 20.746094 132.53125 C 20.945312 131.867188 21.394531 131.316406 22 130.988281 C 22.605469 130.660156 23.3125 130.589844 23.976562 130.796875 C 24.730469 131.023438 25.523438 130.597656 25.757812 129.847656 C 25.984375 129.09375 25.558594 128.300781 24.808594 128.066406 C 23.410156 127.644531 21.941406 127.789062 20.660156 128.480469 C 19.375 129.164062 18.433594 130.3125 18.019531 131.710938 L 17.773438 132.535156 C 16.960938 135.230469 18.300781 138.070312 20.886719 139.125 C 26.0625 141.242188 31.035156 142.304688 35.738281 142.304688 Z M 35.738281 142.304688 " fill-opacity="1" fill-rule="nonzero"/><path fill="#ffffff" d="M 30.121094 134.046875 C 30.683594 134.046875 31.21875 133.714844 31.441406 133.164062 C 31.738281 132.4375 31.390625 131.601562 30.664062 131.304688 C 19.320312 126.660156 18.433594 111.460938 18.429688 111.3125 C 18.398438 110.785156 18.085938 110.3125 17.609375 110.085938 C 8.960938 106.058594 4.359375 99.546875 3.933594 90.742188 C 3.605469 84.027344 5.929688 78.40625 5.949219 78.351562 C 10.398438 67.621094 22.015625 60.15625 30.976562 55.785156 C 40.816406 50.980469 49.707031 48.746094 49.800781 48.726562 C 50.5625 48.535156 51.03125 47.765625 50.839844 47 C 50.648438 46.238281 49.878906 45.765625 49.113281 45.960938 C 48.742188 46.050781 39.882812 48.269531 29.777344 53.195312 C 16.066406 59.878906 7.171875 67.96875 3.320312 77.253906 C 3.21875 77.488281 -6.539062 101.34375 15.648438 112.300781 C 15.796875 113.785156 16.261719 117 17.59375 120.59375 C 20.011719 127.097656 24.152344 131.710938 29.578125 133.933594 C 29.757812 134.011719 29.941406 134.046875 30.121094 134.046875 Z M 30.121094 134.046875 " fill-opacity="1" fill-rule="nonzero"/><path fill="#ffc061" d="M 72.199219 129.71875 C 72.199219 129.71875 58.019531 175.273438 69.710938 217.789062 C 71.175781 223.113281 68.757812 228.765625 63.695312 231.449219 C 57.875 234.519531 45.457031 238.964844 33.671875 237.984375 C 27.148438 237.445312 24.125 229.972656 28.628906 225.464844 C 32.660156 221.4375 42.589844 215.804688 52.429688 213.878906 C 52.429688 213.878906 42.0625 173.105469 57.464844 120.046875 C 72.863281 66.984375 72.199219 129.71875 72.199219 129.71875 Z M 72.199219 129.71875 " fill-opacity="1" fill-rule="nonzero"/><path fill="#ffffff" d="M 37.066406 239.546875 C 48.28125 239.546875 59.265625 235.398438 64.363281 232.703125 C 69.992188 229.730469 72.757812 223.441406 71.09375 217.402344 C 59.652344 175.800781 73.425781 130.589844 73.570312 130.140625 C 73.613281 130.003906 73.632812 129.871094 73.632812 129.734375 C 73.632812 129.65625 73.703125 122.027344 73.171875 114.40625 C 72.144531 99.910156 69.871094 97.644531 67.773438 97.335938 C 65.179688 96.960938 61.976562 99.398438 56.101562 119.644531 C 42.382812 166.929688 49.101562 205.023438 50.734375 212.78125 C 41.398438 214.941406 31.804688 220.28125 27.625 224.453125 C 25.214844 226.863281 24.4375 230.320312 25.59375 233.472656 C 26.820312 236.824219 29.871094 239.097656 33.558594 239.398438 C 34.726562 239.503906 35.894531 239.546875 37.066406 239.546875 Z M 70.78125 129.5 C 69.769531 132.90625 57.078125 177.199219 68.34375 218.160156 C 69.648438 222.890625 67.460938 227.839844 63.03125 230.179688 C 57.683594 233.003906 45.507812 237.53125 33.792969 236.558594 C 31.226562 236.347656 29.117188 234.792969 28.273438 232.496094 C 27.488281 230.363281 28.003906 228.113281 29.644531 226.472656 C 33.726562 222.386719 43.476562 217.082031 52.707031 215.277344 C 53.09375 215.199219 53.429688 214.972656 53.632812 214.644531 C 53.839844 214.316406 53.90625 213.910156 53.8125 213.53125 C 53.714844 213.125 43.730469 172.484375 58.832031 120.445312 C 64.414062 101.195312 67.101562 100.210938 67.386719 100.160156 C 69.3125 101.015625 70.917969 114.707031 70.78125 129.5 Z M 70.78125 129.5 " fill-opacity="1" fill-rule="nonzero"/><path fill="#ffc061" d="M 97.070312 153.414062 C 100.871094 153.414062 104.605469 153.136719 108.257812 152.59375 C 103.933594 197.960938 116.660156 229.246094 116.660156 229.246094 C 106.402344 232.261719 94.832031 238.871094 91.023438 243.320312 C 86.757812 248.296875 90.894531 255.382812 97.917969 255.191406 C 110.609375 254.839844 124.976562 249.144531 130.808594 245.4375 C 135.882812 242.214844 137.78125 236.324219 135.570312 231.199219 C 120.960938 197.3125 125.03125 159.359375 126.863281 147.324219 C 153.878906 135.753906 172.808594 108.921875 172.808594 77.671875 C 172.808594 35.835938 138.898438 1.925781 97.070312 1.925781 C 55.230469 1.925781 21.324219 35.835938 21.324219 77.671875 C 21.324219 119.503906 55.230469 153.414062 97.070312 153.414062 Z M 97.070312 153.414062 " fill-opacity="1" fill-rule="nonzero"/><g clip-path="url(#091a0323df)"><path fill="#ffffff" d="M 97.648438 256.617188 C 97.746094 256.617188 97.855469 256.617188 97.953125 256.609375 C 110.878906 256.253906 125.394531 250.5625 131.570312 246.632812 C 137.210938 243.054688 139.398438 236.46875 136.875 230.628906 C 122.628906 197.574219 126.421875 160.199219 128.15625 148.308594 C 156.175781 135.964844 174.234375 108.324219 174.234375 77.667969 C 174.234375 35.121094 139.621094 0.5 97.070312 0.5 C 54.519531 0.5 19.898438 35.121094 19.898438 77.671875 C 19.898438 120.222656 54.519531 154.839844 97.070312 154.839844 C 100.285156 154.839844 103.507812 154.640625 106.671875 154.246094 C 103.328125 193.082031 112.441406 221.707031 114.800781 228.324219 C 105.054688 231.46875 93.933594 237.714844 89.941406 242.386719 C 87.722656 244.972656 87.25 248.296875 88.675781 251.277344 C 90.226562 254.546875 93.726562 256.617188 97.648438 256.617188 Z M 97.070312 3.351562 C 138.042969 3.351562 171.382812 36.691406 171.382812 77.671875 C 171.382812 107.460938 153.6875 134.285156 126.300781 146.011719 C 125.84375 146.203125 125.523438 146.617188 125.453125 147.109375 C 123.757812 158.246094 119.386719 197.253906 134.257812 231.761719 C 136.210938 236.289062 134.472656 241.414062 130.039062 244.230469 C 124.304688 247.875 110.117188 253.421875 97.867188 253.765625 C 94.945312 253.84375 92.347656 252.386719 91.238281 250.058594 C 90.304688 248.097656 90.609375 245.972656 92.09375 244.246094 C 95.492188 240.269531 106.585938 233.695312 117.054688 230.613281 C 117.4375 230.5 117.761719 230.230469 117.9375 229.867188 C 118.117188 229.5 118.125 229.082031 117.972656 228.710938 C 117.84375 228.402344 105.433594 197.183594 109.667969 152.726562 C 109.710938 152.292969 109.546875 151.859375 109.234375 151.558594 C 108.910156 151.257812 108.476562 151.117188 108.042969 151.179688 C 104.441406 151.714844 100.75 151.988281 97.0625 151.988281 C 56.082031 151.988281 22.742188 118.648438 22.742188 77.671875 C 22.75 36.691406 56.085938 3.351562 97.070312 3.351562 Z M 97.070312 3.351562 " fill-opacity="1" fill-rule="nonzero"/></g><path fill="#ffc061" d="M 155.882812 62.222656 L 181.5625 84.019531 L 191.617188 101.136719 L 190.035156 119.496094 L 182.988281 131.636719 L 169.691406 136.671875 L 162.121094 148.492188 L 156.367188 152.050781 L 159.738281 155.300781 L 159.441406 160.257812 L 155.882812 162.417969 L 144.019531 162.417969 L 131.113281 155.429688 L 125.558594 146.441406 L 127.707031 136.964844 L 135.015625 128.871094 L 154.101562 126.199219 L 167.875 124.144531 L 173.894531 120.132812 L 178 108.261719 L 172.722656 93.652344 L 157.039062 78.578125 L 152.109375 75.8125 Z M 155.882812 62.222656 " fill-opacity="1" fill-rule="nonzero"/><path fill="#ffffff" d="M 151.582031 163.84375 C 153.167969 163.84375 154.792969 163.765625 156.460938 163.601562 C 159.355469 163.324219 161.542969 160.898438 161.542969 157.96875 L 161.542969 157.054688 C 161.542969 155.539062 160.953125 154.117188 159.882812 153.050781 C 158.8125 151.980469 157.394531 151.394531 155.882812 151.394531 C 155.875 151.394531 155.875 151.394531 155.867188 151.394531 C 155.085938 151.394531 154.441406 152.035156 154.449219 152.820312 C 154.449219 153.605469 155.089844 154.246094 155.875 154.246094 C 155.875 154.246094 155.882812 154.246094 155.890625 154.246094 C 156.636719 154.246094 157.34375 154.539062 157.878906 155.066406 C 158.414062 155.601562 158.707031 156.308594 158.707031 157.054688 L 158.707031 157.96875 C 158.707031 159.421875 157.628906 160.628906 156.195312 160.761719 C 148.382812 161.527344 141.617188 160.398438 136.089844 157.414062 C 128.945312 153.554688 125.796875 145.257812 128.769531 138.105469 C 130.722656 133.40625 134.777344 130.371094 141.175781 128.820312 C 143.925781 128.160156 146.863281 127.882812 149.90625 128.003906 C 155.699219 128.230469 166.476562 127.730469 173.671875 121.792969 C 177.914062 118.292969 179.890625 111.167969 179.347656 106.3125 C 178.605469 99.675781 173.894531 92.4375 165.34375 84.789062 C 159.078125 79.183594 153.125 75.519531 152.867188 75.363281 C 152.195312 74.949219 151.320312 75.164062 150.90625 75.832031 C 150.492188 76.503906 150.707031 77.382812 151.375 77.792969 C 151.613281 77.9375 174.914062 92.367188 176.507812 106.628906 C 176.957031 110.664062 175.199219 116.828125 171.851562 119.589844 C 165.152344 125.121094 154.351562 125.320312 150.023438 125.152344 C 146.714844 125.015625 143.511719 125.320312 140.503906 126.046875 C 133.261719 127.800781 128.425781 131.488281 126.136719 137.015625 C 122.601562 145.519531 126.300781 155.375 134.734375 159.921875 C 139.554688 162.53125 145.210938 163.84375 151.582031 163.84375 Z M 151.582031 163.84375 " fill-opacity="1" fill-rule="nonzero"/><g clip-path="url(#0942531f93)"><path fill="#ffffff" d="M 149.109375 155.722656 C 149.152344 155.722656 149.203125 155.722656 149.246094 155.714844 C 155.382812 155.125 160.960938 151.730469 165.359375 145.90625 C 167.8125 142.652344 169.257812 139.523438 169.851562 138.089844 C 195.589844 133.785156 192.964844 106.75 192.9375 106.46875 C 191.867188 95.945312 185.335938 85.082031 173.527344 74.171875 C 164.816406 66.128906 156.546875 61.195312 156.195312 60.988281 C 155.519531 60.589844 154.640625 60.8125 154.242188 61.488281 C 153.84375 62.164062 154.066406 63.042969 154.742188 63.441406 C 155.070312 63.632812 187.71875 83.242188 190.105469 106.761719 C 190.113281 106.835938 190.753906 113.238281 188.386719 119.9375 C 185.273438 128.742188 178.621094 133.941406 168.625 135.390625 C 168.101562 135.46875 167.660156 135.824219 167.484375 136.324219 C 167.425781 136.472656 161.90625 151.617188 148.972656 152.871094 C 148.191406 152.949219 147.621094 153.640625 147.691406 154.425781 C 147.761719 155.175781 148.382812 155.722656 149.109375 155.722656 Z M 149.109375 155.722656 " fill-opacity="1" fill-rule="nonzero"/></g></g></g></g><path fill="#ffb3ee" d="M 288.117188 565.269531 C 286.738281 568.414062 283.957031 570.730469 280.714844 571.835938 C 263.378906 577.691406 250.488281 575.472656 242.617188 572.496094 C 237.34375 570.488281 233.949219 565.394531 234.027344 559.753906 C 234.445312 530.308594 224.589844 500.546875 216.847656 481.832031 C 205.777344 485.386719 193.589844 486.304688 181.246094 483.960938 C 180.027344 483.730469 178.824219 483.472656 177.636719 483.179688 C 161.925781 529.933594 137.734375 558.425781 137.734375 558.425781 C 137.734375 558.425781 167.140625 579.035156 156.957031 589.941406 C 153.300781 593.863281 146.121094 591.457031 142.617188 590.058594 C 124.882812 582.949219 120.429688 574.160156 116.410156 566.523438 C 113.78125 561.535156 114.609375 555.464844 118.414062 551.304688 C 140.316406 527.253906 153.078125 494.585938 159.066406 475.863281 C 133.867188 461.648438 119.253906 433.257812 124.777344 404.199219 C 131.773438 367.40625 168.386719 343.460938 206.554688 350.714844 C 244.722656 357.96875 270 393.675781 263.007812 430.46875 C 259.585938 448.488281 249.050781 463.429688 234.714844 473.109375 C 252.472656 516.890625 253.1875 552.285156 253.1875 552.285156 C 253.1875 552.285156 295.113281 549.386719 288.117188 565.269531 Z M 288.117188 565.269531 " fill-opacity="1" fill-rule="nonzero"/><g clip-path="url(#63ee628421)"><path fill="#ffffff" d="M 151.3125 593.871094 C 148.6875 593.871094 145.566406 593.152344 141.976562 591.714844 C 123.851562 584.453125 118.949219 575.132812 115.011719 567.648438 L 114.859375 567.363281 C 111.910156 561.757812 112.816406 554.824219 117.121094 550.109375 C 138.5 526.636719 151.117188 494.59375 156.957031 476.691406 C 131.21875 461.496094 117.628906 432.421875 123.058594 403.871094 C 130.222656 366.167969 167.84375 341.546875 206.917969 348.96875 C 225.839844 352.566406 242.269531 363.046875 253.203125 378.492188 C 264.148438 393.953125 268.265625 412.53125 264.789062 430.808594 C 261.484375 448.21875 251.609375 463.421875 236.921875 473.777344 C 251.851562 511.160156 254.480469 542.625 254.914062 550.414062 C 261.832031 550.082031 283.761719 549.691406 289.339844 557.632812 C 290.488281 559.269531 291.496094 562.042969 289.765625 565.980469 C 288.242188 569.457031 285.160156 572.210938 281.300781 573.519531 C 263.417969 579.5625 250.058594 577.199219 242.003906 574.160156 C 236.078125 571.914062 232.164062 566.113281 232.261719 559.726562 C 232.664062 531.683594 223.699219 503.335938 215.832031 484.015625 C 204.613281 487.339844 192.582031 487.929688 180.925781 485.71875 C 180.1875 485.574219 179.484375 485.433594 178.824219 485.289062 C 165.1875 525.042969 145.371094 551.695312 140.316406 558.09375 C 145.191406 561.738281 159.796875 573.457031 160.847656 583.429688 C 161.160156 586.40625 160.296875 589.015625 158.292969 591.164062 C 156.582031 592.972656 154.253906 593.871094 151.3125 593.871094 Z M 192.9375 351.214844 C 160.910156 351.214844 132.53125 373.074219 126.542969 404.539062 C 121.3125 432.046875 134.738281 460.089844 159.957031 474.320312 L 161.222656 475.035156 L 160.777344 476.414062 C 155.066406 494.28125 142.128906 527.929688 119.742188 552.515625 C 116.445312 556.125 115.75 561.425781 117.996094 565.703125 L 118.148438 565.988281 C 122.003906 573.324219 126.382812 581.636719 143.285156 588.410156 C 149.316406 590.824219 153.605469 590.941406 155.652344 588.730469 C 156.945312 587.339844 157.480469 585.726562 157.277344 583.792969 C 156.402344 575.398438 142.136719 563.691406 136.710938 559.886719 L 135.113281 558.761719 L 136.378906 557.273438 C 136.621094 556.988281 160.546875 528.464844 175.953125 482.609375 L 176.480469 481.050781 L 178.074219 481.449219 C 179.136719 481.71875 180.285156 481.964844 181.578125 482.214844 C 193.1875 484.425781 205.191406 483.703125 216.292969 480.140625 L 217.855469 479.640625 L 218.476562 481.15625 C 226.605469 500.804688 236.210938 530.390625 235.792969 559.777344 C 235.71875 564.679688 238.707031 569.117188 243.234375 570.828125 C 250.746094 573.664062 263.238281 575.855469 280.125 570.152344 C 283.03125 569.164062 285.347656 567.121094 286.46875 564.5625 C 287.617188 561.945312 286.976562 560.527344 286.390625 559.699219 C 284.339844 556.785156 277.886719 554.804688 268.226562 554.136719 C 260.511719 553.601562 253.382812 554.085938 253.3125 554.09375 L 251.449219 554.226562 L 251.414062 552.355469 C 251.402344 552.007812 250.488281 516.738281 233.074219 473.8125 L 232.53125 472.476562 L 233.722656 471.664062 C 248.265625 461.84375 258.042969 447.105469 261.269531 430.167969 C 264.558594 412.851562 260.652344 395.234375 250.273438 380.574219 C 239.882812 365.890625 224.234375 355.917969 206.234375 352.496094 C 201.777344 351.625 197.324219 351.214844 192.9375 351.214844 Z M 192.9375 351.214844 " fill-opacity="1" fill-rule="nonzero"/></g><path fill="#ffb3ee" d="M 242.074219 395.839844 L 259.148438 408.957031 L 273.644531 413.914062 L 285.863281 407.46875 L 295.078125 395.796875 L 293.75 390.554688 L 293.347656 379.308594 L 288.386719 369.007812 L 292.003906 364.035156 L 298.8125 364.171875 L 301.378906 370.433594 L 304.230469 358.332031 L 308.132812 350.625 L 314.796875 352.042969 L 317.214844 354.261719 L 320.269531 351.160156 L 326.667969 353.289062 L 327.566406 356.898438 L 324.867188 361.800781 L 327.566406 360.730469 L 332.121094 363.429688 L 332.496094 368.929688 L 333.652344 373.089844 L 334.039062 378.554688 L 325.75 387.679688 L 321.777344 393.007812 L 313.042969 400.785156 L 307.394531 407.808594 L 296.191406 419.679688 L 285.160156 425.898438 L 271.402344 427.867188 L 257.082031 424.140625 L 247.707031 418.539062 L 233.972656 407.183594 L 233.234375 396.445312 Z M 242.074219 395.839844 " fill-opacity="1" fill-rule="nonzero"/><path fill="#ffffff" d="M 319.023438 376.113281 C 318.621094 376.210938 318.191406 376.171875 317.800781 375.976562 C 316.917969 375.542969 316.5625 374.472656 317 373.589844 L 325.046875 357.46875 C 325.464844 356.632812 325.519531 355.695312 325.1875 354.8125 C 324.867188 353.941406 324.21875 353.253906 323.363281 352.890625 C 322.507812 352.523438 321.550781 352.523438 320.707031 352.90625 C 319.851562 353.28125 319.210938 353.976562 318.898438 354.859375 L 317.140625 359.8125 C 316.8125 360.738281 315.796875 361.230469 314.871094 360.898438 C 313.941406 360.570312 313.453125 359.554688 313.78125 358.628906 L 315.539062 353.671875 C 316.171875 351.882812 317.535156 350.410156 319.269531 349.644531 C 321.007812 348.878906 323.015625 348.871094 324.761719 349.617188 C 326.507812 350.367188 327.878906 351.8125 328.539062 353.59375 C 329.191406 355.375 329.082031 357.371094 328.234375 359.0625 L 320.1875 375.183594 C 319.949219 375.664062 319.511719 375.988281 319.023438 376.113281 Z M 319.023438 376.113281 " fill-opacity="1" fill-rule="nonzero"/><path fill="#ffffff" d="M 323.175781 382.527344 C 322.703125 382.644531 322.195312 382.570312 321.757812 382.277344 C 320.9375 381.734375 320.714844 380.628906 321.257812 379.808594 L 330.179688 366.390625 C 330.902344 365.300781 330.6875 363.867188 329.679688 363.046875 C 329.082031 362.558594 328.308594 362.371094 327.558594 362.53125 C 326.808594 362.691406 326.175781 363.179688 325.828125 363.867188 L 324.636719 366.265625 C 324.199219 367.148438 323.121094 367.503906 322.246094 367.066406 C 321.367188 366.628906 321.007812 365.5625 321.445312 364.679688 L 322.640625 362.28125 C 323.46875 360.613281 324.972656 359.4375 326.808594 359.046875 C 328.628906 358.65625 330.5 359.109375 331.933594 360.285156 C 334.367188 362.273438 334.882812 365.746094 333.144531 368.359375 L 324.226562 381.777344 C 323.96875 382.171875 323.59375 382.429688 323.175781 382.527344 Z M 323.175781 382.527344 " fill-opacity="1" fill-rule="nonzero"/><path fill="#ffffff" d="M 331.90625 367.253906 C 332.042969 367.316406 332.15625 367.386719 332.273438 367.484375 L 333.902344 368.785156 C 335.453125 370.023438 336.425781 371.796875 336.640625 373.777344 C 336.851562 375.753906 336.273438 377.6875 335.015625 379.230469 L 326.300781 389.914062 C 325.492188 391.617188 320.3125 401.925781 312.242188 403.523438 C 309.914062 407.726562 298.679688 426.191406 279.136719 429.292969 C 264.414062 431.628906 248.792969 424.613281 232.699219 408.441406 C 232.003906 407.746094 232.003906 406.613281 232.707031 405.917969 C 233.402344 405.222656 234.535156 405.222656 235.230469 405.929688 C 250.46875 421.238281 265.046875 427.910156 278.554688 425.773438 C 298.355469 422.636719 309.390625 401.304688 309.496094 401.089844 C 309.773438 400.554688 310.296875 400.1875 310.894531 400.117188 C 318.042969 399.359375 323.101562 388.335938 323.15625 388.230469 C 323.21875 388.089844 323.300781 387.953125 323.398438 387.839844 L 332.246094 376.976562 C 332.898438 376.171875 333.191406 375.175781 333.082031 374.152344 C 332.976562 373.125 332.46875 372.207031 331.667969 371.566406 L 330.035156 370.265625 C 329.269531 369.652344 329.144531 368.527344 329.761719 367.761719 C 330.292969 367.109375 331.1875 366.925781 331.90625 367.253906 Z M 331.90625 367.253906 " fill-opacity="1" fill-rule="nonzero"/><path fill="#ffffff" d="M 313.871094 349.636719 C 315.269531 350.277344 316.410156 351.355469 317.140625 352.738281 C 318.050781 354.449219 318.21875 356.410156 317.613281 358.253906 L 312.355469 374.277344 C 312.054688 375.210938 311.046875 375.71875 310.109375 375.417969 C 309.175781 375.113281 308.667969 374.105469 308.96875 373.171875 L 314.226562 357.148438 C 314.53125 356.238281 314.441406 355.269531 313.996094 354.414062 C 313.542969 353.566406 312.785156 352.953125 311.867188 352.683594 C 310.929688 352.417969 309.949219 352.542969 309.113281 353.039062 C 308.273438 353.539062 307.695312 354.339844 307.492188 355.296875 L 303.1875 374.785156 C 303.007812 375.578125 302.324219 376.148438 301.511719 376.183594 C 300.699219 376.210938 299.96875 375.691406 299.738281 374.917969 L 297.421875 367.226562 C 297.136719 366.292969 296.503906 365.515625 295.640625 365.0625 C 294.773438 364.605469 293.777344 364.507812 292.839844 364.804688 C 291.824219 365.125 290.996094 365.871094 290.578125 366.851562 C 290.160156 367.832031 290.195312 368.945312 290.667969 369.898438 L 294.953125 378.515625 C 295.167969 378.945312 295.195312 379.445312 295.042969 379.890625 C 295.015625 379.980469 291.921875 389.253906 296.707031 393.792969 C 297.289062 394.335938 297.429688 395.199219 297.066406 395.910156 C 296.644531 396.703125 286.753906 415.390625 272.730469 414.9375 C 259.101562 414.492188 244.070312 397.257812 243.347656 396.507812 C 242.664062 395.804688 242.679688 394.671875 243.394531 393.988281 C 244.097656 393.300781 245.230469 393.328125 245.914062 394.03125 C 246.085938 394.199219 260.664062 410.980469 272.84375 411.371094 C 282.894531 411.695312 291.050781 399.148438 293.296875 395.339844 C 288.929688 389.984375 290.738281 381.949219 291.449219 379.472656 L 287.484375 371.496094 C 286.539062 369.605469 286.476562 367.40625 287.308594 365.460938 C 288.136719 363.519531 289.765625 362.039062 291.78125 361.40625 C 293.632812 360.828125 295.59375 361.007812 297.3125 361.914062 C 299.035156 362.824219 300.28125 364.347656 300.84375 366.203125 L 301.191406 367.359375 L 304.023438 354.539062 C 304.441406 352.640625 305.636719 350.992188 307.304688 349.992188 C 308.96875 349.003906 310.992188 348.738281 312.863281 349.269531 C 313.195312 349.359375 313.542969 349.484375 313.871094 349.636719 Z M 313.871094 349.636719 " fill-opacity="1" fill-rule="nonzero"/><path fill="#ffb3ee" d="M 125.535156 418.761719 L 111.777344 435.335938 L 98.738281 443.371094 L 85.398438 439.789062 L 73.832031 430.453125 L 73.964844 425.042969 L 71.871094 413.984375 L 74.429688 402.835938 L 69.804688 398.789062 L 63.191406 400.429688 L 62.078125 407.105469 L 56.617188 395.9375 L 51.109375 389.28125 L 44.914062 392.132812 L 43.054688 394.832031 L 39.390625 392.488281 L 33.617188 395.972656 L 33.542969 399.699219 L 37.25 403.878906 L 34.390625 403.433594 L 30.542969 407.070312 L 31.398438 412.511719 L 31.183594 416.835938 L 32.019531 422.246094 L 42.117188 429.3125 L 47.171875 433.625 L 57.417969 439.28125 L 64.476562 444.886719 L 78.027344 453.984375 L 90.15625 457.605469 L 104.015625 456.488281 L 117.148438 449.683594 L 125.054688 442.144531 L 135.941406 428.035156 L 134.285156 417.40625 Z M 125.535156 418.761719 " fill-opacity="1" fill-rule="nonzero"/><path fill="#ffffff" d="M 46.128906 416.542969 C 46.539062 416.550781 46.945312 416.417969 47.292969 416.140625 C 48.0625 415.515625 48.167969 414.394531 47.542969 413.636719 L 36.128906 399.691406 C 35.539062 398.96875 35.28125 398.058594 35.398438 397.132812 C 35.515625 396.207031 36.003906 395.394531 36.753906 394.851562 C 37.511719 394.300781 38.4375 394.09375 39.347656 394.28125 C 40.265625 394.460938 41.039062 394.992188 41.546875 395.777344 L 44.355469 400.226562 C 44.878906 401.054688 45.976562 401.304688 46.8125 400.777344 C 47.640625 400.25 47.890625 399.15625 47.367188 398.316406 L 44.558594 393.871094 C 43.542969 392.265625 41.894531 391.136719 40.023438 390.769531 C 38.152344 390.414062 36.199219 390.839844 34.660156 391.957031 C 33.117188 393.070312 32.101562 394.78125 31.851562 396.660156 C 31.609375 398.539062 32.15625 400.464844 33.359375 401.9375 L 44.773438 415.882812 C 45.121094 416.308594 45.621094 416.53125 46.128906 416.542969 Z M 46.128906 416.542969 " fill-opacity="1" fill-rule="nonzero"/><path fill="#ffffff" d="M 43.5 423.722656 C 43.980469 423.734375 44.46875 423.546875 44.828125 423.171875 C 45.503906 422.457031 45.476562 421.328125 44.765625 420.648438 L 33.089844 409.535156 C 32.144531 408.636719 32.039062 407.195312 32.839844 406.160156 C 33.3125 405.554688 34.027344 405.199219 34.800781 405.1875 C 35.566406 405.179688 36.296875 405.519531 36.78125 406.113281 L 38.472656 408.183594 C 39.097656 408.941406 40.21875 409.054688 40.976562 408.433594 C 41.742188 407.808594 41.851562 406.683594 41.226562 405.929688 L 39.53125 403.859375 C 38.355469 402.417969 36.628906 401.605469 34.746094 401.632812 C 32.886719 401.660156 31.164062 402.507812 30.023438 403.976562 C 28.089844 406.453125 28.359375 409.957031 30.632812 412.121094 L 42.296875 423.234375 C 42.632812 423.554688 43.0625 423.714844 43.5 423.722656 Z M 43.5 423.722656 " fill-opacity="1" fill-rule="nonzero"/><path fill="#ffffff" d="M 31.59375 410.757812 C 31.476562 410.847656 31.378906 410.945312 31.28125 411.0625 L 29.980469 412.691406 C 28.742188 414.242188 28.179688 416.183594 28.410156 418.164062 C 28.644531 420.140625 29.632812 421.898438 31.203125 423.125 L 42.0625 431.617188 C 43.230469 433.105469 50.554688 442.007812 58.789062 441.777344 C 61.988281 445.367188 77.03125 460.882812 96.777344 459.589844 C 111.652344 458.621094 125.328125 448.316406 137.457031 428.980469 C 137.984375 428.144531 137.726562 427.046875 136.894531 426.523438 C 136.058594 425.996094 134.960938 426.246094 134.4375 427.082031 C 122.96875 445.386719 110.226562 455.117188 96.574219 456.027344 C 76.566406 457.355469 61.089844 438.980469 60.9375 438.792969 C 60.554688 438.328125 59.957031 438.089844 59.359375 438.160156 C 52.222656 438.996094 44.851562 429.375 44.773438 429.273438 C 44.683594 429.152344 44.566406 429.042969 44.453125 428.945312 L 33.402344 420.3125 C 32.589844 419.679688 32.082031 418.761719 31.957031 417.746094 C 31.84375 416.71875 32.128906 415.710938 32.769531 414.910156 L 34.070312 413.28125 C 34.683594 412.511719 34.5625 411.390625 33.792969 410.777344 C 33.136719 410.257812 32.226562 410.269531 31.59375 410.757812 Z M 31.59375 410.757812 " fill-opacity="1" fill-rule="nonzero"/><path fill="#ffffff" d="M 45.289062 389.585938 C 44.070312 390.519531 43.195312 391.820312 42.785156 393.335938 C 42.277344 395.207031 42.546875 397.160156 43.542969 398.816406 L 52.214844 413.28125 C 52.722656 414.125 53.816406 414.402344 54.65625 413.894531 C 55.492188 413.386719 55.769531 412.289062 55.269531 411.453125 L 46.601562 396.988281 C 46.109375 396.160156 45.976562 395.199219 46.226562 394.273438 C 46.476562 393.34375 47.082031 392.578125 47.925781 392.117188 C 48.78125 391.644531 49.761719 391.554688 50.691406 391.855469 C 51.617188 392.160156 52.355469 392.8125 52.773438 393.691406 L 61.285156 411.746094 C 61.632812 412.476562 62.425781 412.886719 63.226562 412.734375 C 64.03125 412.585938 64.617188 411.917969 64.679688 411.105469 L 65.242188 403.09375 C 65.3125 402.113281 65.757812 401.222656 66.507812 400.582031 C 67.246094 399.949219 68.199219 399.636719 69.179688 399.71875 C 70.242188 399.804688 71.210938 400.351562 71.835938 401.214844 C 72.460938 402.078125 72.671875 403.175781 72.425781 404.207031 L 70.152344 413.554688 C 70.035156 414.019531 70.117188 414.507812 70.367188 414.917969 C 70.417969 415 75.480469 423.359375 71.816406 428.847656 C 71.371094 429.507812 71.425781 430.378906 71.941406 430.984375 C 72.523438 431.671875 86.308594 447.695312 99.878906 444.15625 C 113.078125 440.707031 124.722656 421.050781 125.265625 420.160156 C 125.773438 419.320312 125.507812 418.226562 124.671875 417.707031 C 123.832031 417.199219 122.738281 417.46875 122.21875 418.304688 C 122.09375 418.511719 110.777344 437.625 98.980469 440.699219 C 89.25 443.238281 78.519531 432.804688 75.488281 429.585938 C 78.5625 423.394531 75.015625 415.953125 73.777344 413.699219 L 75.882812 405.046875 C 76.378906 402.996094 75.960938 400.839844 74.722656 399.121094 C 73.484375 397.410156 71.570312 396.332031 69.464844 396.152344 C 67.53125 395.992188 65.660156 396.597656 64.179688 397.871094 C 62.710938 399.136719 61.820312 400.902344 61.6875 402.835938 L 61.605469 404.039062 L 56 392.160156 C 55.171875 390.40625 53.640625 389.050781 51.792969 388.453125 C 49.949219 387.855469 47.917969 388.042969 46.214844 388.96875 C 45.886719 389.167969 45.582031 389.363281 45.289062 389.585938 Z M 45.289062 389.585938 " fill-opacity="1" fill-rule="nonzero"/><path fill="#ffb3ee" d="M 129.867188 439.65625 C 129.867188 439.65625 128.894531 436.867188 126.28125 438.398438 C 123.679688 439.925781 125.515625 426.96875 125.515625 426.96875 L 135.105469 419.625 L 143.785156 427.949219 Z M 129.867188 439.65625 " fill-opacity="1" fill-rule="nonzero"/><path fill="#ffb3ee" d="M 256.617188 416.703125 C 262.105469 421.34375 266.195312 425.105469 264.976562 425.042969 C 261.804688 424.890625 261.667969 427.886719 261.667969 427.886719 L 239.105469 429.730469 L 226.007812 407.355469 L 235.488281 399.582031 C 235.488281 399.582031 240.320312 403.371094 246.085938 408.03125 L 238.171875 395.332031 L 246.101562 388.84375 L 261.492188 407.371094 C 261.492188 407.371094 261.277344 412.03125 265.386719 413.28125 C 268.085938 414.109375 261.472656 415.703125 256.617188 416.703125 Z M 256.617188 416.703125 " fill-opacity="1" fill-rule="nonzero"/></svg>